<svg width="380" height="249" viewBox="0 0 380 249" fill="none" xmlns="http://www.w3.org/2000/svg">
<rect width="380" height="249" fill="#F7FA62"/>
<rect x="19" y="18" width="341" height="214" fill="#482F8F"/>
<path d="M243.64 174.72C244.067 169.003 244.28 162.176 244.28 154.24V88.192C243.171 88.192 241.336 88.4053 238.776 88.832C236.216 89.2587 233.955 89.6853 231.992 90.112L231.48 89.344L234.424 86.4H268.984C275.981 86.4 282.125 87.3387 287.416 89.216C292.707 91.0933 296.76 93.7387 299.576 97.152C302.392 100.565 303.8 104.576 303.8 109.184C303.8 114.304 301.965 118.741 298.296 122.496C294.627 126.251 289.805 128.768 283.832 130.048V130.304C291.341 131.413 297.315 133.973 301.752 137.984C306.275 141.909 308.536 146.816 308.536 152.704C308.536 160.043 305.293 165.76 298.808 169.856C292.408 173.952 283.448 176 271.928 176H243.64V174.72ZM270.52 173.696C278.712 173.696 285.197 171.861 289.976 168.192C294.755 164.523 297.144 159.531 297.144 153.216C297.144 149.035 295.992 145.408 293.688 142.336C291.469 139.179 288.312 136.747 284.216 135.04C280.12 133.333 275.512 132.48 270.392 132.48H255.288V173.696H270.52ZM268.6 129.92C273.72 129.92 278.157 129.067 281.912 127.36C285.667 125.653 288.525 123.264 290.488 120.192C292.536 117.035 293.56 113.365 293.56 109.184C293.56 105.173 292.493 101.632 290.36 98.56C288.312 95.4027 285.411 93.0133 281.656 91.392C277.901 89.6853 273.549 88.832 268.6 88.832H255.288V129.92H268.6Z" fill="white"/>
<rect x="20" y="18" width="169" height="214" fill="#7A1BF2"/>
<path d="M66.6898 177.644C67.3826 173.635 68.0821 166.981 68.7882 157.681C69.5799 148.296 69.9852 139.849 70.0042 132.34L70.0878 99.188C68.7262 97.7339 67.3214 96.4504 65.8735 95.3374C64.5112 94.1393 63.1056 93.1971 61.6566 92.5108C60.9751 92.0824 60.2933 91.7393 59.6112 91.4816C59.0146 91.2241 58.4178 91.0092 57.8209 90.8371L58.4647 89.3027C61.6221 89.3106 64.7367 89.3185 67.8087 89.3263C70.966 89.3342 74.0807 89.3421 77.1527 89.3498L81.7607 89.3615C82.5241 91.1554 83.2876 92.9493 84.0511 94.7433C84.8148 96.4519 85.5784 98.2031 86.3418 99.9971C88.3778 104.781 90.4567 109.437 92.5786 113.965L115.749 163.943L148.32 89.5294L160.864 89.5611L160.861 90.8411C160.685 92.974 160.506 96.1735 160.325 100.44C160.142 105.218 160.048 108.844 160.042 111.319L159.875 177.367C160.984 177.37 162.819 177.161 165.38 176.741C167.942 176.235 170.204 175.772 172.168 175.35L172.678 176.119L169.726 179.184L148.222 179.129L148.226 177.849C148.667 172.133 148.897 165.307 148.917 157.371L149.075 94.7794L112.638 179.04L110.718 179.035L79.1425 112.395C78.2941 110.43 77.2748 108.593 76.0844 106.883C74.9796 105.088 73.7893 103.379 72.5134 101.754L72.3231 177.146C73.4324 177.149 75.2676 176.94 77.8287 176.52C80.39 176.014 82.6525 175.551 84.6162 175.129L85.1263 175.898L82.1746 178.963L66.6866 178.924L66.6898 177.644Z" fill="white"/>
</svg>
